# xmcd
#
# Track frame offsets:
#	150
#	18993
#	35779
#	54002
#	72947
#	88765
#	114713
#	134870
#	154143
#	172963
#	189290
#	208809
#	227195
#	243986
#
# Disc length: 3589 seconds
#
# Revision: 11
# Processed by: cddbd v1.5.2PL0 Copyright (c) Steve Scherf et al.
# Submitted via: EasyCDDAExtractor 12.0.1.1
#
DISCID=c30e030e
DTITLE=齐秦 - 世纪情歌
DYEAR=1999
DGENRE=Pop
TTITLE0=一无所有
TTITLE1=月亮代表我的心
TTITLE2=情人的眼泪
TTITLE3=恋曲1990
TTITLE4=寂寞难耐
TTITLE5=如果云知道
TTITLE6=走在风雨中
TTITLE7=一场游戏一场梦
TTITLE8=我愿意
TTITLE9=魂萦旧梦
TTITLE10=我是一片云
TTITLE11=情网
TTITLE12=我找到自己
TTITLE13=告别
EXTD=YEAR: 1999
EXTT0=
EXTT1=
EXTT2=
EXTT3=
EXTT4=
EXTT5=
EXTT6=
EXTT7=
EXTT8=
EXTT9=
EXTT10=
EXTT11=
EXTT12=
EXTT13=
PLAYORDER=
